<mxfile host="app.diagrams.net" modified="2020-11-03T08:06:26.504Z" agent="5.0 (X11; Linux x86_64) AppleWebKit/537.36 (KHTML, like Gecko) Chrome/77.0.3865.120 Safari/537.36" etag="KhFgfWmETAuMUnT-DD2v" version="13.8.2" type="github" pages="2">
  <diagram id="h9tyXJU4BfLx0NENEYcY" name="第 1 页">
    <mxGraphModel dx="1035" dy="594" grid="1" gridSize="10" guides="1" tooltips="1" connect="1" arrows="1" fold="1" page="1" pageScale="1" pageWidth="827" pageHeight="1169" math="0" shadow="0">
      <root>
        <mxCell id="0" />
        <mxCell id="1" parent="0" />
        <mxCell id="7rlH-JLcy3Hg_WToKcSe-3" value="控制器" style="rounded=0;whiteSpace=wrap;html=1;fontSize=16;" vertex="1" parent="1">
          <mxGeometry x="180" y="140" width="80" height="40" as="geometry" />
        </mxCell>
      </root>
    </mxGraphModel>
  </diagram>
  <diagram id="9LqXgOel0YUcQj2ZiUZ-" name="第 2 页">
    <mxGraphModel dx="1035" dy="594" grid="1" gridSize="10" guides="1" tooltips="1" connect="1" arrows="1" fold="1" page="1" pageScale="1" pageWidth="827" pageHeight="1169" math="0" shadow="0">
      <root>
        <mxCell id="XB-mMEFGtg9YxqX9Aaqe-0" />
        <mxCell id="XB-mMEFGtg9YxqX9Aaqe-1" parent="XB-mMEFGtg9YxqX9Aaqe-0" />
        <mxCell id="gsf-0igHdWIBSqOD4liH-0" value="控制器" style="rounded=0;whiteSpace=wrap;html=1;fontSize=16;" vertex="1" parent="XB-mMEFGtg9YxqX9Aaqe-1">
          <mxGeometry x="180" y="250" width="120" height="60" as="geometry" />
        </mxCell>
      </root>
    </mxGraphModel>
  </diagram>
</mxfile>
